<?xml version="1.0" encoding="UTF-8" standalone="no"?>
<svg
   xmlns:dc="http://purl.org/dc/elements/1.1/"
   xmlns:cc="http://creativecommons.org/ns#"
   xmlns:rdf="http://www.w3.org/1999/02/22-rdf-syntax-ns#"
   xmlns:svg="http://www.w3.org/2000/svg"
   xmlns="http://www.w3.org/2000/svg"
   xmlns:xlink="http://www.w3.org/1999/xlink"
   xmlns:sodipodi="http://sodipodi.sourceforge.net/DTD/sodipodi-0.dtd"
   xmlns:inkscape="http://www.inkscape.org/namespaces/inkscape"
   inkscape:version="1.0 (4035a4fb49, 2020-05-01)"
   sodipodi:docname="Norway_Counties_Trøndelag_Position.svg"
   version="1.0"
   width="740"
   height="790"
   id="svg2">
  <sodipodi:namedview
     inkscape:current-layer="layer1"
     inkscape:window-maximized="1"
     inkscape:window-y="-11"
     inkscape:window-x="-11"
     inkscape:cy="461.31859"
     inkscape:cx="370"
     inkscape:zoom="1.0303797"
     showgrid="false"
     id="namedview61"
     inkscape:window-height="1000"
     inkscape:window-width="1920"
     inkscape:pageshadow="2"
     inkscape:pageopacity="0"
     guidetolerance="10"
     gridtolerance="10"
     objecttolerance="10"
     borderopacity="1"
     bordercolor="#666666"
     pagecolor="#ffffff" />
  <metadata
     id="metadata150">
    <rdf:RDF>
      <cc:Work
         rdf:about="">
        <dc:format>image/svg+xml</dc:format>
        <dc:type
           rdf:resource="http://purl.org/dc/dcmitype/StillImage" />
        <dc:title />
      </cc:Work>
    </rdf:RDF>
  </metadata>
  <defs
     id="defs77">
    <linearGradient
       id="linearGradient4373">
      <stop
         offset="0"
         style="stop-color:#ff5454;stop-opacity:1"
         id="stop4375" />
      <stop
         offset="1"
         style="stop-color:#cc0000;stop-opacity:1"
         id="stop4377" />
    </linearGradient>
    <linearGradient
       id="linearGradient4261">
      <stop
         offset="0"
         style="stop-color:#cccccc;stop-opacity:1"
         id="stop4263" />
      <stop
         offset="1"
         style="stop-color:#8c8c8c;stop-opacity:1"
         id="stop4265" />
    </linearGradient>
    <linearGradient
       xlink:href="#linearGradient4261"
       id="linearGradient1183"
       x1="39.960938"
       y1="736.23145"
       x2="134.98438"
       y2="736.23145"
       gradientUnits="userSpaceOnUse" />
    <linearGradient
       xlink:href="#linearGradient4261"
       id="linearGradient1191"
       x1="12.373047"
       y1="717.03815"
       x2="79.519531"
       y2="717.03815"
       gradientUnits="userSpaceOnUse" />
    <linearGradient
       xlink:href="#linearGradient4261"
       id="linearGradient1199"
       x1="79.125"
       y1="706.1123"
       x2="178.9805"
       y2="706.1123"
       gradientUnits="userSpaceOnUse" />
    <linearGradient
       xlink:href="#linearGradient4261"
       id="linearGradient1207"
       x1="17.167969"
       y1="605.43555"
       x2="135.05466"
       y2="605.43555"
       gradientUnits="userSpaceOnUse" />
    <linearGradient
       xlink:href="#linearGradient4261"
       id="linearGradient1215"
       x1="95.375"
       y1="681.29004"
       x2="224.70312"
       y2="681.29004"
       gradientUnits="userSpaceOnUse" />
    <linearGradient
       xlink:href="#linearGradient4261"
       id="linearGradient1223"
       x1="185.34731"
       y1="685.4809"
       x2="198.32478"
       y2="685.4809"
       gradientUnits="userSpaceOnUse" />
    <linearGradient
       xlink:href="#linearGradient4261"
       id="linearGradient1231"
       x1="114.82031"
       y1="607.87109"
       x2="267.00977"
       y2="607.87109"
       gradientUnits="userSpaceOnUse" />
    <linearGradient
       xlink:href="#linearGradient4261"
       id="linearGradient1255"
       x1="273.42578"
       y1="253.52641"
       x2="445.89056"
       y2="253.52641"
       gradientUnits="userSpaceOnUse" />
    <linearGradient
       xlink:href="#linearGradient4261"
       id="linearGradient1263"
       x1="387.82227"
       y1="94.201172"
       x2="735.41602"
       y2="94.201172"
       gradientUnits="userSpaceOnUse" />
    <linearGradient
       xlink:href="#linearGradient4261"
       id="linearGradient899"
       x1="53.3125"
       y1="501.20605"
       x2="180.79102"
       y2="501.20605"
       gradientUnits="userSpaceOnUse" />
    <linearGradient
       xlink:href="#linearGradient4261"
       id="linearGradient926"
       x1="152.16992"
       y1="459.22168"
       x2="333.45312"
       y2="459.22168"
       gradientUnits="userSpaceOnUse" />
  </defs>
  <style
     type="text/css"
     id="style5" />
  <style
     id="style5-3"
     type="text/css" />
  <g
     id="layer1"
     style="display:inline;opacity:1">
    <g
       id="g4622"
       style="fill:url(#linearGradient1263);fill-opacity:1;stroke:none">
      <title
         id="title1147">Troms og Finnmark</title>
      <path
         style="fill:url(#linearGradient1263);fill-opacity:1;fill-rule:evenodd;stroke:none;stroke-width:1px;stroke-linecap:butt;stroke-linejoin:round;stroke-opacity:1"
         d="m 613.05859,2.9335938 -0.18164,5.5234374 -3.51953,-0.060547 -2.06445,2.0019538 3.27734,1.701171 -2.91211,4.855469 -1.09375,7.828125 -4.00586,-3.337891 -1.75976,0.84961 -1.69922,-4.369141 -2.54883,-0.06055 -3.94531,-1.517578 -2.00195,2.427735 1.88086,2.912109 -0.78907,4.492188 -4.79492,-2.246094 -1.88086,4.552734 2.66992,1.638672 2.60938,0.728516 4.49219,6.007812 -1.03125,2.003906 -6.19141,-3.40039 -4.97656,7.890625 2.0625,3.582031 -7.52539,0.787109 -8.61914,9.46875 0.84961,2.427735 -4.24805,4.673828 1.45703,6.007812 -3.03516,2.548828 0.97071,2.550782 2.73242,0.423828 1.75976,2.853516 -2.06445,2.669921 -4.30859,0.607422 -1.63867,-3.216797 -2.42774,-2.548828 v -3.884765 l -3.27734,-1.275391 0.54687,-3.761719 -3.0957,-0.0625 -3.45899,-3.154297 h -3.46093 l -0.78907,2.488282 0.30469,3.33789 -1.63867,1.212891 -1.0918,-1.699219 0.36328,-4.794922 -1.57812,-2.912109 -1.33594,1.638672 -3.70117,-2.853516 -2.30664,1.396485 -0.69727,5.886718 -1.14062,0.88086 -5.6875,-7.314454 -1.33594,3.458985 -3.27734,0.425781 -0.41797,1.19336 -0.24024,1.103515 3.83985,3.230469 0.1875,2.363281 4.42969,2.609375 6.40429,-1.791016 1.12305,1.275391 -2.58008,2.822266 3.00391,1.912109 -0.42383,3.277344 -1.88281,0.636719 c 0,0 3.54091,11.611423 2.76172,12.078125 -0.77919,0.466702 -6.19141,-7.708985 -6.19141,-7.708985 l -3.70117,-2.001953 -2.64063,-5.310547 -3.0957,-1.730469 -2.69922,0.638672 -0.88086,2.820313 1.63867,4.673828 -1.82031,3.853516 -1.69922,-1.728516 -1.73047,0.212891 -1.51758,2.548828 -1.15234,-3.582032 0.42383,-1.578124 -1.75977,-0.605469 -1.33593,2.001953 -0.48438,4.855469 -5.91797,2.669921 -0.0605,9.044921 4.67382,3.79297 0.30274,2.00196 -6.28125,-2.27539 -2.85352,4.91601 -2.45703,5.67383 -1.36523,-2.09375 5.00586,-11.89453 -1.82032,-5.310552 1.94141,-12.564453 -0.87891,-3.277344 -1.94336,-0.728515 -8.98242,16.691406 1.54883,6.007818 -3.30859,1.54883 -2.88282,8.00976 -1.91211,1.0332 3.36915,-15.17382 0.84961,-7.677741 -1.69922,-1.759766 -3.55078,0.212891 -8.01172,3.945312 -4.36914,7.767584 -0.18164,3.58203 5.21874,0.39453 0.1211,1.48633 -4.64258,3.85351 2.36719,3.67188 5.43164,3.64258 0.63672,3.76172 1.94336,2.85351 -3.3086,2.45703 -2.58007,-0.72851 0.21289,-2.88282 2.24609,-2.0332 -5.82617,-4.06641 -4.88672,-11.04492 -5.2793,0.1211 -2.33789,2.51758 4.61328,9.25585 5.31055,2.45899 -8.76953,1.15234 -5.85742,-12.19922 -2.18555,1.51758 -1.18359,6.13086 -3.70118,5.18945 2.21485,6.3418 -9.89258,3.97461 -4.73438,7.31445 -0.21289,4.46094 6.19141,1.0625 1.60742,1.42578 -6.55469,1.30469 -1.21289,2.09375 3.94532,2.91406 -6.61524,-0.63867 -2.70117,2.70117 4.49023,2.85352 -1.78906,1.54687 -6.67773,-2.09375 -1.78906,3.09571 -4.09766,-2.45899 -6.79688,4.46094 -0.0605,4.1582 -1.99219,1.30664 2.25391,1.22852 4.91992,-4.12305 6.28125,2.01953 10.2207,-2.57031 10.17773,1.42383 3.30469,3.96484 6.56055,-1.1875 4.36914,4.09766 11.62305,1.12305 18.90625,8.74023 6.46289,-7.73828 -5.06836,-4.61328 8.89258,-16.66016 -1.76563,-8.94726 -3.12109,-5.19336 11.59179,-2.00391 1.85157,-2.82227 7.34375,4.06641 1.97265,-1.66797 -1.69922,-8.67969 6.88868,-7.76953 8.07226,2.79297 7.69531,13.20117 0.52149,1 4.37695,6.52539 -1.15234,2.42774 3.0332,2.66992 3.0957,11.28906 3.15625,-2.18554 2.91407,2.30664 h 8.07226 l 3.39844,4.36914 4.24805,-3.88282 6.1914,-1.75976 3.58008,-8.07227 3.82422,0.0605 6.85742,7.64648 8.4375,1.0918 5.88672,7.40625 4.49023,-2.91406 1.39649,-11.77539 4.36914,-5.70508 4.79492,0.48633 4.97656,-9.4082 -3.09375,-14.38282 3.27735,-19.84765 0.36328,-9.466803 5.16016,-5.462891 5.82617,-12.078125 10.86328,1.578125 6.91992,-2.185547 0.9707,-3.945312 5.21875,-5.583984 7.4043,-1.212891 4.31055,10.013672 4.73242,1.154297 2.125,4.308594 15.96289,6.433593 5.76563,16.447272 -7.5254,12.01758 -1.88281,9.34765 4.79492,4.30859 3.15625,0.48438 3.64258,-3.27734 0.1211,-15.47657 11.83398,-8.73828 4.85547,-9.529297 -2.12305,-4.673828 2.30664,-1.517579 6.3711,5.402344 5.2207,1.457031 4.00586,-1.033203 1.0918,-4.855469 -4.36914,-10.134765 -5.76563,-1.396485 -2.125,1.578126 -3.64258,-4.369141 -2.36523,1.152344 1.33398,3.277343 -1.9414,6.070313 -8.31446,0.242187 -1.21484,-2.791015 3.58008,-1.033203 3.03515,-3.882813 -2.85156,-4.066406 -2.36719,2.123047 -5.82617,-2.367188 1.03125,-3.216797 -4.12695,-2.427734 -4.67383,0.667969 -2.00195,-1.88086 -9.95508,-2.427734 -0.9707,-5.341797 23.48828,3.277344 4.67383,1.759765 8.98242,-5.705078 -0.1211,-3.761718 3.51953,-4.1875 6.37305,-2.427735 3.27734,-2.671875 -2.79101,-8.677734 -3.52149,1.455078 -5.58398,-6.554688 -10.43945,2.125 2.97461,-7.162109 -5.15821,-5.279297 -4.67382,4.429688 -3.15625,-4.613282 -7.04102,4.310547 -0.36328,-4.794921 -2.00195,-3.521485 -5.94922,-3.640625 -3.51953,1.88086 -4.3086,6.3125 -2.125,10.439453 1.57813,8.496093 -3.88477,1.94336 -3.0957,-1.759766 -3.51953,0.484375 -2.36719,-0.789062 6.49414,-9.285157 0.30273,-4.310546 -5.27929,3.703124 -1.27539,-1.578124 3.03515,-2.791016 -5.40234,-2.367188 1.50195,-2.40625 6.38867,-0.93164 4.91602,-10.015625 -1.15234,-3.2773442 -4.97657,0.4257812 -1.57812,-5.5234374 -7.83008,2.8515624 -3.2168,-2.609375 -2.60937,1.3359376 -0.36524,5.7050784 -4.30859,-1.9414066 -1.0918,3.5800786 -2.0039,5.037109 5.34179,0.607422 2.0625,3.095703 -2.60937,1.941406 -0.60742,4.248047 -2.73047,0.607422 -1.27344,5.523438 2.1836,2.548828 -3.3379,2.367187 1.1543,6.3125 -2.97461,0.06055 -6.98047,6.373047 0.18164,-14.75 -1.33398,-4.308594 2.30664,-3.095703 -0.66797,-13.109375 -3.45898,1.03125 L 625.50195,28 l -13.83789,28.041016 1.21289,3.701172 -5.70507,10.378906 -3.88477,3.458984 -3.0957,-5.339844 4.97851,-10.865234 -2.36719,-3.033203 3.51954,-2.853516 0.72851,-3.884765 -3.2168,-2.669922 13.89844,-21.363282 v -3.582031 l -7.52539,0.667969 0.30274,-3.458984 4.49218,-2.609375 3.09571,0.302734 4.1875,-2.914063 -3.2168,-2.4882808 1.33398,-3.7011718 -2.79101,-0.2421875 z m -19.90625,4.8847656 -0.9707,1.9140625 1.94141,1.3945311 1.45703,-1.03125 -0.0117,-2.0234374 z m -13.41406,5.3730466 -1.75976,0.84961 v 4.794922 l 3.27734,-0.181641 0.60742,-2.246094 z m -16.81055,12.867188 -2.70117,1.546875 -0.24414,4.21875 -1.29883,2.253906 -2.28125,0.507813 -1.54687,-1.972657 -1.69922,0.181641 -0.66797,3.824219 -2.73242,1.457031 -2.0625,-2.853516 -2.42774,0.121094 -3.33789,2.427734 -2.36718,0.181641 -2.48828,1.822266 5.03711,3.09375 -1.1543,5.099609 4.37109,-0.304688 5.82617,-3.761718 3.88477,0.242187 4.42969,-3.824219 0.42578,-3.033203 3.94531,-3.40039 2.48828,-5.400391 -0.66797,-2.003906 z m 11.01563,6.373047 -1.57813,5.947265 0.57618,4.734375 3.33789,1.759766 3.21679,-2.306641 1.21289,-5.128906 -2.48828,-2.517578 z m -5.12891,8.435547 -3.58203,4.1875 -5.64453,1.457031 -3.09375,4.066406 -0.78906,4.734375 4.42969,1.820312 0.24218,2.609376 2.91407,0.365234 8.31445,-10.986328 z m -18.69336,14.6875 -4.21875,4.005859 9.01368,3.914062 1.9121,-1.425781 -3.55078,-6.099609 z m -19.5039,0.382812 -1.28711,4.376953 1.07422,1.373047 1.60937,-2.875 z m -46.04492,6.232422 -0.48633,2.30664 2.55078,3.763672 0.36328,6.007813 4.49219,1.09375 2.66992,-2.490235 -3.45899,-5.947265 -1.94335,-0.181641 -2.12305,-4.126953 z m -9.77149,2.732422 -1.45703,3.945312 1.73047,0.84961 1.24414,-3.763672 z m 33.07813,0.121094 -3.76368,1.941406 -3.39843,5.583984 1.63867,2.548828 2.85156,-0.849609 1.1543,2.246094 2.24609,-0.970703 1.33399,-8.316407 z m -27.61524,3.945312 -0.24414,2.123047 2.85352,1.517578 0.60742,-0.970703 -1.21485,-2.669922 z m -14.02148,3.277344 -2.30469,4.005859 0.54492,1.394531 3.2168,-2.24414 0.42578,-1.822266 z m 8.74023,1.273437 -2.79101,3.763672 -1.94336,-0.789062 -2.30469,2.185547 0.72656,2.730468 -3.27734,1.578125 0.24414,1.759766 7.94922,6.191406 4.31054,-1.578125 2.1836,-3.884766 4.0664,-5.341796 0.1836,-2.304688 -2.85352,-1.517578 -2.12304,2.0625 z m 35.56641,4.248047 -1.27539,3.339844 2.73242,2.427734 2.19726,-1.292968 0.89844,-2.289063 z m -22.21289,2.064453 -5.64453,6.373047 -0.42579,2.488281 4.3086,-0.607421 3.2168,-6.615235 z m 19.47656,6.488281 -1.3457,0.03906 -0.69336,5.267578 1.6914,0.0293 z m -42.54102,1.644532 -1.15234,5.402344 0.84961,3.822265 2.48828,-0.242187 3.03516,-2.730469 L 468.97461,91 Z m -5.21875,3.398437 -5.09765,2.246094 1.75976,3.763672 -4.12695,0.910156 -0.12305,4.673827 -2.18359,-0.66797 -1.39648,2.24414 2.18554,3.33985 11.77344,-1.39649 2.42773,-1.94336 -3.51953,-7.585934 0.1211,-4.248047 z m -17.72265,14.384769 -2.97461,0.42383 0.66797,3.03515 -3.70117,2.30664 -3.76368,-3.15625 -3.15625,2.125 3.09571,4.97656 -0.78907,1.75977 -5.0371,-1.82031 -4.79493,2.42773 3.15625,3.27735 -1.76172,2.42773 2.79297,3.51953 -3.51953,1.21484 0.0254,1.5254 1.61328,1.50781 -6.00976,5.46289 4.61719,-0.50781 2.12109,1.84375 2.0625,-2.73243 3.13086,-1.42187 3.18164,-4.2207 0.91016,2.30468 6.25195,-0.91015 4.24805,-2.1836 -1.33594,-1.39648 -0.36328,-5.76563 4.00586,-2.06445 1.15234,-4.79492 -2.18555,-1.33399 1.21485,-4.18945 -3.70313,1.21485 z m -9.10352,29.92187 -2.48828,1.51758 -0.91016,3.64062 1.33399,0.91016 2.60937,-2.66992 z m -26.09765,4.79492 -0.91211,3.51954 3.70312,3.45898 2.48828,-1.03125 -0.30273,-2.97461 z m -13.79102,2.68164 -1.30273,13.5586 -4.21289,14.41406 1.63085,1.66992 6.00391,-8.22656 2.19141,0.12109 -0.80078,4.80469 1.01367,2.2207 1.07422,-1.86914 6.72461,-2.17382 1.16601,-0.31055 2.00195,-0.91406 1.63868,-12.01758 -6.13086,-7.34375 -4.12696,6.1289 1.69922,2.06446 -4.73437,7.16211 -3.2168,0.12109 2.67188,-7.2832 -2.30664,-1.27539 1.21289,-9.9961 z m 34.66797,3.56836 -1.45508,1.1543 -1.1543,3.76172 1.1543,2.00391 3.39844,-1.63868 0.36328,-2.125 z m -6.73633,3.03516 -4.24805,6.98047 1.2129,1.51758 5.46289,-3.70313 z m -18.04492,20.00586 -3.79102,3.00586 -2.58789,7.04101 10.25,-3.53515 0.18164,-5.73047 z"
         id="path4514" />
    </g>
    <g
       id="g4632"
       style="fill:#cccccc;fill-opacity:1;stroke:none" />
    <g
       id="g4710"
       style="fill:url(#linearGradient1255);fill-opacity:1;stroke:none">
      <title
         id="title1157">Nordland</title>
      <path
         style="fill:url(#linearGradient1255);fill-opacity:1;fill-rule:evenodd;stroke:none;stroke-width:1px;stroke-linecap:butt;stroke-linejoin:round;stroke-opacity:1"
         d="m 403.54688,121.52734 -7.22266,2.79297 -1.51758,4.06641 -6.79687,6.06836 -2.125,8.67969 1.70117,1.09179 2.24414,-4.73242 4.00586,-0.36523 6.49414,-6.61524 z m -24.3379,15.05274 -2.30664,2.91406 0.78907,9.22461 -4.24805,-0.72852 -3.51953,3.58008 -3.39844,-2.00195 -5.3418,6.37305 0.42579,4.12695 2.18359,-0.24219 3.64258,-3.40039 3.39843,0.84961 5.64454,-4.30859 2.12304,2.54882 -8.00976,5.3418 -0.61914,2.41797 2.01367,0.91992 11.22851,-6.43359 -1.27343,-6.06836 1.82031,-2.36719 -2.79297,-5.34179 -0.30273,-5.82618 z m 13.08594,6.5957 -2.98047,3.08008 -0.67968,2.29687 0.89257,1.43946 -3.82422,2.42773 2.36719,3.70313 -3.15625,2.73047 1.69922,2.42773 -1.33398,2.30664 -5.22071,2.79297 -0.0605,5.94726 -3.51953,2.2461 -2.91407,7.52539 1.21485,0.48633 7.2832,-8.61914 1.69922,0.0605 -3.88477,6.55469 4.06641,-0.0606 2.30664,1.88086 6.79688,-8.31445 0.9707,4.30859 3.23047,-5.62109 -1.44336,-3.16797 0.79883,-3.92773 -0.64063,-0.0332 -6.36133,8.76172 -2.89648,-3 4.28515,-14.92187 z m 40.9961,25.18945 -10.33204,2.56836 -5.95507,-1.95117 -5.0293,4.17188 -2.93945,-1.47657 0.27734,3.53321 6.13086,0.72851 4.67383,-3.58007 0.48437,3.58007 3.27735,0.42383 7.07031,-4.1875 4.49219,5.12891 -5.79688,4.55273 -4.03515,-0.69922 -3.61133,2.48828 -2.36719,-1.88086 -3.36914,0.88086 -2.69922,-3.0039 -7.375,-0.39453 -3.0957,0.9707 4.46093,5.03711 -1.12304,1.54687 -6.3125,-3.45898 -0.66602,2.73047 2.82227,2.15625 -1.48828,2.75976 5.37109,0.15235 -0.30273,3.42969 -4.09766,3.06445 5.88867,0.60742 -4.40039,2.94336 2.0625,4.58203 -2.30469,1.94336 -2.91406,-4.67383 -4.30859,-1.27539 1.27343,-7.22265 -1.15234,-6.49414 -5.28125,9.58984 0.18164,2.24609 1.91211,2.64063 -2.63867,3.91406 -3.52149,-0.42578 -5.09765,3.0957 -2.42774,-1.15234 -4.00586,2.97461 -2.57421,-3.06055 1.57421,-1.95508 -1.68359,-1.71875 -3.14062,-0.21484 -0.60938,1.71094 2.125,1.96093 -4.1875,2.48828 -1.76172,3.3379 h 3.94531 l 0.48633,3.88281 -3.15625,-0.36328 -2.48828,2.54883 0.84961,3.15624 2.48828,0.18165 12.07813,-9.58985 6.1914,3.94531 -1.39648,1.76172 -3.76367,-1.0332 -3.2168,1.45703 -3.03516,6.07031 3.52149,0.84961 -2.66992,3.27735 1.51562,2.00195 2.48828,0.0606 2.42774,1.69922 -1.63868,4.73437 -3.27734,-3.33789 -6.37109,0.30273 1.69922,-3.15625 -2.18555,-3.45898 -6.19141,2.30664 -0.84961,2.60938 5.06836,3.24414 -1.04687,2.3125 -6.19336,-2.7168 -2.20899,1.71289 -5.7539,8.55664 5.33984,-1.45508 2.48828,1.27344 3.40039,0.0606 4.49024,-1.21289 2.73242,3.51953 8.375,3.45898 -2.79297,1.27539 -0.91016,3.58008 -2.9121,-4.06641 -6.19141,-1.51757 -1.94141,2.36718 -2.85351,-3.33789 -9.89258,1.69922 -3.15625,4.55274 3.15625,2.60937 -7.34375,3.33789 -3.2168,-3.39844 -2.66992,4.79493 -4.18945,-0.54688 -5.15821,2.2461 -0.36328,1.82031 5.21875,3.76367 1.45703,3.33789 -6.55468,-0.9707 -2.73242,1.63867 1.0332,2.79101 4.00586,-0.42382 1.9414,2.66992 h -6.55468 l -4.49219,-2.91211 -1.94141,1.69922 0.91016,3.58008 -3.33789,3.94531 3.51953,2.36719 -3.09375,2.79101 -2.125,-3.15625 -1.82031,-0.36328 -1.1543,1.33594 1.57812,5.40039 -3.0957,4.24805 2.67188,3.76367 2.85156,-2.18555 2.48828,0.60742 v 2.00391 l -7.70703,5.21875 1.0918,1.33594 11.77539,-4.06641 1.63867,2.24414 9.40625,-3.64063 3.2168,0.30274 -2.36719,0.84961 -5.33985,4.31055 -3.39843,0.18164 -1.03321,4.24804 -4.1875,0.72852 0.42578,-4.49219 -1.51757,-1.15234 -20.0293,5.70508 -0.18164,1.9414 5.58398,0.85156 -0.66797,3.94336 3.94532,3.52149 0.0605,4.00586 -8.375,-5.88867 -4.91601,5.88867 1.94141,2.66992 -3.03516,3.15625 2.125,6.67578 -1.94336,0.84961 -3.39844,-5.09766 -3.15625,2.66993 -0.42383,8.375 4.67383,-1.51563 -0.30469,3.39844 1.03125,3.4707 -1.10351,1.99024 -3.24219,-0.7754 -0.32812,4.81836 -3.45899,5.1836 1.76172,2.54883 -1.49023,3.08203 0.88281,1.16601 2.24609,-0.91015 h 3.58008 l -3.0957,4.00586 -9.04297,1.88086 -3.07227,3.98046 1.15821,1.56446 12.55859,2.81445 3.9668,-1.13477 7.33789,-7.27929 30.74804,2.74609 3.35157,-4.64453 0.0859,-3.9043 4.16407,-4.25 1.45898,-14.97656 4.46289,-12.91797 -1.07226,-19.82812 2.66015,-2.10352 13.30469,-0.1289 7.63867,-5.10547 0.38672,-14.29102 9.05469,-9.82812 7.4668,-11.80274 10.85937,-10.38476 1.1582,-15.40821 -5.53711,-8.92578 3.60547,-6.52344 3.5625,0.38672 6.60938,-11.37304 4.67773,-13.69141 13.30469,-10.77148 12.70312,10.30078 8.02539,-14.33399 -1.58007,-19.95703 1.95507,-2.07226 -2.98242,-3.66993 z m -59.39063,4.41993 -5.32227,4.30273 -2.25976,-3.5 -6.70898,3.64649 -0.29102,2.98828 -4.59375,1.82422 -0.14649,6.05078 6.34376,-1.89454 4.01171,-5.83398 2.1875,2.47852 2.62305,-2.98828 3.5,-2.77149 z m -27.63281,5.03125 -0.14649,1.82421 1.16602,0.65626 v -2.04297 z m 5.46875,0.0742 -1.89649,1.09376 1.16602,1.82226 2.40625,-0.36523 z m -9.99024,2.625 -3.28125,0.80079 0.58399,3.71875 -2.33399,1.53125 -0.65625,3.57226 2.625,2.48047 2.99024,-0.73047 1.16601,-3.5 5.97852,-2.84179 v -0.21876 l 0.0742,-1.89648 -3.42774,0.21875 -0.80273,-2.25977 z m -9.84375,6.5625 -1.23828,3.57227 -3.0625,2.25977 2.40625,2.11523 2.76953,-2.04297 0.58399,-4.8125 z m -6.92578,4.1543 -8.09375,14.875 3.13477,0.0723 1.24023,-5.39453 4.73828,-1.3125 -1.3125,-3.20899 1.09375,-2.11328 -0.58203,-2.77148 z m 61.10156,1.60547 -1.82421,1.67578 -3.42579,0.0742 -2.47851,2.33203 -0.21875,3.57422 4.30078,-2.33398 3.57227,3.42773 2.26171,-2.99023 -1.53124,-1.16602 1.23828,-4.01172 z m -39.08203,57.96484 -2.625,2.84375 -3.57226,0.875 -0.58399,2.11524 4.74024,2.33398 1.75,-3.57422 z m -12.54101,6.78125 -0.36524,2.55274 1.82422,-1.02149 z m -8.45899,12.03125 -0.36328,1.45899 0.65625,0.72851 z m -2.25976,4.66602 -2.47852,0.36523 0.21094,1.75 h 1.90234 z m -2.26758,2.11523 h -0.28516 l 0.29297,0.0723 z m -11.36719,17.9375 -1.16601,1.82227 1.45703,0.72852 0.58398,-1.67579 z m -4.74023,8.82227 -3.06055,1.16602 1.60352,1.67773 1.3125,-0.58398 z m 4.52148,1.3125 -1.96875,1.38477 0.875,1.38476 2.69727,-2.33203 z m -13.125,2.98828 -0.4375,2.11524 1.75,0.65625 0.80274,-1.82227 z m -1.01953,4.375 -5.03125,4.52149 1.09375,1.38476 5.39453,-1.82226 0.21875,-3.35352 z m 0.29102,8.82227 -1.60352,0.58398 -3.20898,5.10352 2.40625,1.45898 4.22851,-4.30273 z m 5.97851,0.0742 -2.47851,2.04101 2.47851,-0.36523 z m -25.88476,16.47851 -2.69727,1.82227 0.0742,2.69726 2.91602,0.875 1.67578,-0.50976 0.4375,-4.00977 z m 8.53125,9.69727 -1.16602,4.00976 1.75,1.75 -3.5,3.57227 0.21875,2.69922 -3.71875,2.91601 1.16602,4.15625 2.99023,-4.52148 h 1.67774 l 3.42578,-2.91602 -0.0723,-9.84375 z m -4.95703,5.97851 -3.0625,3.20899 2.55078,1.16601 -0.14453,-0.29101 z m 0.58203,15.16602 -1.89453,1.38476 -1.96875,5.6875 3.42578,1.02149 1.53125,-6.49024 z"
         id="path4652">
        <title
           id="title1149">Nordland</title>
      </path>
    </g>
    <g
       id="g4777"
       style="fill:url(#linearGradient926);fill-opacity:1;stroke:none">
      <title
         id="title1159">Trøndelag</title>
      <path
         style="fill:url(#linearGradient926);fill-opacity:1;fill-rule:evenodd;stroke:none;stroke-width:1px;stroke-linecap:butt;stroke-linejoin:miter;stroke-opacity:1"
         d="m 272.21094,371.84961 -5.16797,5.58398 1.16797,0.66602 5.66601,-5.41797 z m -7.08399,0.16601 -4.33398,1.66602 0.41601,1.50195 4.58399,-1.91797 z m 8.64649,5.27149 -8.23047,5.48047 -3,-1.33399 -1.33399,3.41797 1,2.08399 9.08594,-2.33399 -6.00195,6.16797 1.66601,1.33203 -3.83203,3.16797 -4.83593,-0.66601 -0.5,2.91601 4.16796,0.91602 -1.16601,2.00195 -5.41797,-0.5 1.33398,4.91602 5.58399,-0.5 -4.66797,4.58398 v 2.00195 l -7.58398,4.58399 -1.83399,-5.91797 -1.83398,-1.16797 -2.58399,-6.58398 -2.91601,7.08398 -5.91797,-0.33203 2.08398,4.5 -1.33398,1.33398 -5.50196,-2.66797 0.084,3.08399 -10.16797,8.16797 1.16602,1.41797 -8.83399,4.33398 -1.75,7.08399 h 2.58399 v 2.66601 l -15.08594,6.25195 -0.084,4.5 -1.91601,1 1.83203,1.91797 11.33594,-2.58398 -6.83399,5.50195 1.66602,8.58399 1.83398,2 4.66797,-2.66602 6.16797,-0.16797 6.66797,-4.5 7.08398,-2.5 5.58399,-4.75195 0.83398,-5.91797 -7.91797,2.58398 -0.16797,-1.75 4.41797,-1.41601 13.50196,-11.41992 1.16797,5.33593 2.58203,0.082 0.33398,1.41796 -10.33398,6.66797 0.33203,2.58203 3.83398,-1.5 2.83399,2.66797 v 2.41602 l -10.91797,5.58398 -2.41797,-1.33203 -7,6.5 4.16797,-0.66601 -0.084,2.08398 -3.75,2.5 1.25,2.91602 -1.16797,3.25195 -10.50195,-1.16797 -1.33203,-2.33398 -5.25195,-0.75 -3.83399,1.16796 -0.58398,2.83399 1.75195,2 -1.66797,1.58398 -5.25,-1.16797 1.75,-2.58398 1.5,-5.25 -4,-4.25 -0.41797,-5.33594 -2.16601,-2.66601 -3.75195,1.41601 v 2.66797 l -4.66602,0.83399 -3.33398,-0.66797 -2.25,2 -0.33399,2.08398 3.75,1.33399 -3.83398,2.25 0.75,2.75 -2.83399,1.41796 -1.91601,0.084 0.75,-4.00195 -0.25,-4.41602 -1.91797,0.33203 -2.16602,2.83399 -4.78515,-1.95313 2.39843,5.82813 -1.66015,5.7207 -0.0254,0.44141 -1,0.33593 -2.64453,0.67383 0.45117,0.18555 -2.40625,1.60351 h -1.38477 l -2.625,2.69922 -6.34375,-2.26172 -3.5,3.79297 1.16797,2.9961 8.29883,-1.4043 8.70703,-3.40625 0.97656,-0.14063 6.61133,1.99805 4.06055,21.39258 -12.82422,4.57422 -0.50391,1.375 5.69922,10.02929 -5.58984,10.10547 11.28711,8.0625 4.19336,0.99414 11.7207,-8.17773 0.75781,-8.89649 4.67578,-5.57031 12.26368,1.43164 4.58398,2.24805 2.51172,-2.21289 7.47461,2.42969 4.28711,10.80078 4.01758,3.2207 1.76953,5.26367 8.86328,1.48828 4.25976,3.07227 4.23243,1.15625 -1.88086,-15.21875 3,-10.16797 -1.58204,-7.33594 5.33399,-7.66797 -3.75195,-18.58593 7.91796,-11.58399 0.25,-6.75195 18.66993,-22.08594 7.00195,-5.83593 7.66797,-0.33204 18.66992,6.83399 6.91797,-9.58594 1.5,-16.58594 -12.16992,-9 0.58398,-3.08398 19.65234,-28.70899 -30.27539,-2.73242 -7.11523,7.10352 -4.49414,1.30664 -13.1875,-2.9668 z m -27.15039,1.39648 -7.5,3.66602 2,2.41797 6.875,-5.08399 z m 2.75,1.91602 -4.08399,3.66797 3.50196,0.58398 1,3.5 3.66601,-2.08398 -0.16601,-2.33399 z m 7.83593,2.58398 -2,3 4.41602,0.16797 z m -2.66796,4.66797 -0.58399,1.58399 1.00195,1.83398 -0.16796,2.66602 7.00195,-5 z m -1.33399,9.66797 -0.16601,0.33399 -3.08399,1.5 1.83399,2.83398 z m -9.66797,1.33399 0.41797,2.5 3.16602,0.83398 v -2 z m 6.33399,5.16796 0.084,4.75 3.08399,0.33399 1,-3.25195 z m -74.84375,36.25586 -1.66797,2.66602 -9.66797,2.5 -0.58398,1.45898 8.00195,1.45899 4.5,-2 1.5,-3.58399 z m 1.58203,9.66797 -8.58399,2.25 1.41602,2 -7.16797,0.91797 -3.08203,3.66602 0.5,1.58398 h 1.58203 l 4.66797,-0.33398 11.58594,1.08398 5.33398,-2.75 0.83399,-2.58398 -5.66797,-1.58399 0.83398,-2.66601 z"
         id="path4751">
        <title
           id="title906">Trøndelag</title>
      </path>
    </g>
    <path
       style="fill:url(#linearGradient1231);fill-opacity:1;fill-rule:evenodd;stroke:none;stroke-width:1px;stroke-linecap:butt;stroke-linejoin:miter;stroke-opacity:1"
       d="m 201.82422,518.7793 -4.11914,4.95898 -0.74805,8.9668 -11.83398,8.23437 -1.4043,0.30078 -4.10352,-0.98632 -11.83789,-8.32032 -9.59765,-4.23437 -16.16797,1.88672 -8.34375,7.84179 -5.80859,-1.875 -6.52149,5.07618 -3.06641,-1.33594 -3.45117,3.13281 0.85352,1.04883 0.0996,14.10351 1.44336,3.14454 4.27929,-0.77344 5.12891,3.35156 -0.74609,5.38672 1.57226,5.08008 5.49024,1.85547 3.14453,5.13086 -0.35938,3.47851 -5.72461,0.20703 1.85743,5.54297 -6.03321,3.09375 -0.875,3.76367 3.32422,8.17188 6.59961,5.72266 3.76367,2.16406 4.64063,6.4707 3.63476,0.46484 9.76953,10.18164 2.47461,12.89063 4.97657,3.22266 4.02148,4.43359 1.41797,-1.03125 1.08203,-3.48047 5.77344,-3.71289 2.47656,2.60352 c 0.21661,2.18286 0.74814,4.87648 1.17187,7.50781 0.29121,1.80826 0.33357,1.94465 0.61133,3.58398 l 4.89453,5.57032 12.52344,1.88671 0.65039,-1.41211 -3.58398,-5.45507 2.02734,-2.14453 5.63281,1.28125 5.78907,-3.38086 0.90039,-0.54688 2.52929,4.96875 2.00782,0.25586 2.7539,15 8.71875,13.875 -1.27148,10.91016 6.21875,-1.11914 5.25,1.24023 9.25976,-10.28125 3.5,-13.5625 4.51954,-10.28125 -1.82227,-3.5 0.58398,-5.0293 -5.6875,-23.11523 2.11329,-2.84375 10.0625,-0.72852 8.75,-18.22851 -7.21875,-13.63477 h -3.42579 l -7.73046,-12.75976 8.53125,-25.81055 -1.29297,-9.44336 -4.90821,-1.38086 -4.20703,-3.08398 -9.22265,-1.4961 -1.8418,-5.55859 -4.00977,-3.1543 -4.17578,-10.69922 -6.52539,-2.07812 -2.57031,2.24219 -5.08594,-2.49805 z"
       id="path4791">
      <title
         id="title1153">Innlandet</title>
    </path>
    <path
       style="fill:url(#linearGradient1223);fill-opacity:1;fill-rule:evenodd;stroke:none;stroke-width:1px;stroke-linecap:butt;stroke-linejoin:miter;stroke-opacity:1"
       d="m 185.34731,682.69871 2.93969,3.82132 0.15644,3.5611 2.26858,-0.41246 0.70673,5.73257 4.53618,-0.71368 2.36985,-7.51055 -5.34693,-11.61647 -3.641,0.29337 z"
       id="path4793">
      <title
         id="title983">Oslo</title>
    </path>
    <g
       id="g4799"
       style="fill:url(#linearGradient1215);fill-opacity:1;stroke:none">
      <title
         id="title1165">Viken</title>
      <path
         style="fill:url(#linearGradient1215);fill-opacity:1;fill-rule:evenodd;stroke:none;stroke-width:1px;stroke-linecap:butt;stroke-linejoin:miter;stroke-opacity:1"
         d="m 128.16016,606.24805 -3.77735,6.38086 -5.52929,2.67968 -2.75782,-0.20507 -2.65625,1.13476 -3.83984,6.27734 -4.22852,0.21876 -2.88671,2.71874 3.57031,4.85938 -1.36719,3.55859 1.86914,4.47266 -11.18164,21.82813 5.83008,-1.34376 4.81054,2.84376 10.3418,-2.55274 9.06446,3.29688 9.0957,1.30859 5.23047,7.2793 1.59765,5.67187 3.50586,3.81641 0.69532,4.6914 2.50195,3.35157 1.36523,21.03515 5.50586,5.61524 2.36133,-2.52149 6.25977,0.66992 -0.51563,-8.12109 6.29102,-5.05273 2.39648,2.01172 4.74414,-2.60352 3.50586,3.73828 -0.74805,8.53125 4.22852,-1.31445 1.77734,-4.48438 -2.67968,-8.30078 0.17968,-0.1289 -0.16797,-0.0898 0.0508,-0.91015 1.14843,-5.39454 3.54297,-1.23632 -0.0351,-3.11524 -2.69922,-3.5293 -0.11328,-1.14062 4.02148,-6.78125 0.80078,-0.59375 3.73242,-0.25586 0.8711,0.50195 5.5664,12.06641 -2.69726,8.45117 -5.24024,0.91797 -3.26562,-1.83008 -2.26758,4.38281 1.39258,5.77344 -1.27344,8.28125 -0.12305,1.40625 -2.58789,9.20703 3.13672,3.71875 -0.73047,3.13672 3.71875,6.3418 2.91797,-1.38477 3.2793,2.69727 2.1875,-2.18555 1.45898,1.89453 -0.0371,2.57422 5.11719,3.18555 -0.0566,10.3418 0.75391,2.29101 3.43164,-0.67773 5.58789,-9.82032 1.17187,-4.68554 2.6875,-6.44532 -0.41015,-10.44921 -1.10157,-11.64258 6.19532,-3.44336 2.01757,-3.75 -1.1875,-2.25391 0.39844,-1.1582 -0.68554,-5.31836 1.27148,-10.52734 -8.63477,-13.83008 -2.62304,-14.40039 -1.88477,-0.16016 -2.24609,-4.56055 -6.0293,3.57227 -5.51172,-1.23633 -1.14648,1.26563 3.46484,5.13476 -1.25,2.72657 -0.96679,-0.23633 -12.59766,-1.89844 -4.06641,-4.625 -1.18359,-1.38281 -1.89844,-11.14844 -1.65039,-1.80469 -4.76953,3.09375 -1.0293,3.40235 -2.47656,1.80468 -4.5625,-5.05273 -5.18164,-3.35156 -2.47461,-12.91407 -9.35742,-9.82226 -3.66016,-0.41211 -4.89844,-6.72852 -3.55664,-2.0625 z"
         id="path4795">
        <title
           id="title1104">Viken</title>
      </path>
    </g>
    <path
       style="fill:url(#linearGradient1199);fill-opacity:1;fill-rule:evenodd;stroke:none;stroke-width:1px;stroke-linecap:butt;stroke-linejoin:miter;stroke-opacity:1"
       d="m 101.08984,659.90039 -6.646481,1.44922 -3.929687,5.03516 -4.371094,1.35156 -3.865234,3.46094 -2.228516,7.33984 -0.923828,3.97851 3.806641,3.6875 4.05664,0.42969 4.158203,13.63672 -0.24414,2.35352 -2.705078,0.89843 0.441406,3.25586 3.007812,3.08789 1.125,14.63477 3.554688,7.67188 5.558598,0.3125 7.25976,6.6582 4.04297,-0.83008 4.6543,4.84375 1.69726,-1.91406 0.2168,-3.01367 7.95508,-1.69727 5.10742,9.15625 -0.49805,3.1875 4.14453,3.44922 3.0918,-3.00977 -2.84375,-2.84375 0.4375,-1.09375 h 6.5625 l 1.09375,-2.47851 4.73828,0.0723 1.3125,-2.40625 -1.89453,-2.1875 0.0723,-6.63476 3.08789,4.28515 0.81054,0.63282 2.22657,1.71679 -0.65625,4.88477 3.5,0.4375 6.63476,-4.30078 2.40625,0.72851 5.46875,-7 0.72852,-4.73828 3.5,-1.02148 1.82422,-2.69727 -0.875,-2.1875 1.16601,-4.15625 -4.52148,-5.6875 0.14258,-1.9707 1.85351,-0.0781 1.81445,1.16211 0.83399,-8.02343 -2.70117,-2.92969 -4.63086,2.56055 -2.32813,-1.94336 -5.29492,4.28125 0.55078,8.76171 -6.95898,-0.76367 -1.96875,2.21875 -0.94727,0.48047 -6.29492,-6.40625 -1.34961,-21.06836 -2.42773,-3.37304 -0.74414,-4.66211 -3.5,-3.75586 -1.54102,-5.72852 -4.89063,-6.75977 -8.82226,-1.30664 -8.84375,-3.13671 -10.375,2.45898 z"
       id="path4805">
      <title
         id="title981">Vestfold og Telemark</title>
    </path>
    <g
       id="g4835"
       style="fill:url(#linearGradient899);fill-opacity:1;stroke:none">
      <title
         id="title1161">Møre og Romsdal</title>
      <path
         style="fill:url(#linearGradient899);fill-opacity:1;fill-rule:evenodd;stroke:none;stroke-width:1px;stroke-linecap:butt;stroke-linejoin:miter;stroke-opacity:1"
         d="m 152.16992,457.66016 -7.14453,1.82226 -1.09375,2.33399 4.15625,2.69726 0.65625,2.47852 5.32227,-3.5 z m 12.32227,7.14453 -3.20703,3.0625 3.71875,1.24023 1.45703,-2.77148 z m 5.41406,0.27343 -0.60156,0.0195 -0.58203,4.95703 -2.91797,-0.29102 -1.60352,1.67578 -0.21875,4.66797 2.44531,1.00196 4.25586,-1.08594 v -0.002 l 1.55664,-5.36523 z m -9.13086,6.87305 -4.52148,0.50977 v 3.28125 l 3.0625,2.40625 3.20898,-2.91602 z m -11.66797,0.80078 -3.64453,2.84375 0.875,1.82422 2.625,0.14453 2.1875,-4.15625 z m 5.32422,0.94922 -2.48047,2.25977 1.16797,0.80273 1.82227,-2.48047 z m -19.39648,4.59375 -2.18555,2.04102 h -3.5 l -0.875,2.25976 3.42578,4.15625 3.5,-2.1875 0.94727,-4.44726 z m 4.8125,0.58203 -1.53125,3.13672 1.3125,1.45703 1.96875,-0.29101 1.75,-3.35352 z m 7.65625,1.89649 -1.38477,2.25976 2.47852,7.94727 -0.4375,0.875 2.47851,3.86523 1.75,4.59375 2.77149,2.98828 1.96875,4.15625 -2.99024,-1.45703 -2.40625,-3.86523 -4.37304,-3.0625 -1.16797,-6.78125 -3.20703,-4.375 -5.54297,1.45898 -1.38477,-2.04101 -5.6875,1.38476 -6.63476,-7.29101 -4.52149,0.65625 -4.30078,3.86328 1.09375,4.52148 2.40625,1.45899 0.29101,1.75 -3.0625,0.14453 -1.45703,2.91797 3.0625,2.47851 3.49805,-1.60351 5.32422,1.01953 v 2.69726 l 6.33984,0.41211 1.16992,0.97461 -5.03124,2.55078 -2.40626,3.13672 3.20899,2.625 -1.82422,1.60352 -9.76953,-6.85352 -1.89648,1.3125 -1.23829,-3.5 -3.13671,-1.16797 -2.33204,2.69922 -4.52148,-4.8125 -2.40625,2.33203 -7.656251,-1.01953 -2.84375,2.625 4.841797,2.01172 2.304688,2.43555 -7.365235,1.3125 2.771485,3.0625 8.968746,-1.38477 4.11329,3.52149 -0.32227,1.87304 -8.093751,-2.47851 -5.46875,1.67578 0.08203,2.70117 -1.394532,2.33008 -2.916015,-4.95703 -2.478516,-1.16602 -5.541016,3.7168 v 2.26172 l -2.625,2.55078 1.675782,5.17773 -2.25586,1.79102 -2.11914,0.0312 0.292968,-8.23828 -2.990234,1.3125 -2.771484,-0.94922 -1.894532,2.91797 -3.353515,-4.30274 -3.136719,-0.21875 -1.166016,3.86524 -5.759765,-8.38477 -1.3125,0.94727 -0.498047,5.27734 9.40625,10.35938 14.943359,3.77929 3.949219,-1.26171 4.023438,3.05859 5.679687,5.87109 9.525389,-2.38281 12.82813,-0.32617 4.39648,-3.95117 3.07032,1.32422 6.54296,-4.98438 5.69532,1.82813 8.16211,-7.67188 16.78515,-1.92578 9.49414,4.06836 5.02539,-9.57031 -5.51562,-9.9668 0.88672,-2.15039 12.58008,-4.57227 -3.66993,-19.83789 -6.125,-1.86328 -9.09179,3.55469 -8.19336,1.38672 0.13672,0.35351 2.47851,0.14649 3.28125,1.89453 -2.55078,1.24023 1.16602,2.77149 -0.50977,2.33203 -4.59375,-0.72852 0.14453,-5.39648 -2.98828,-5.83203 0.36328,-2.04102 z m -37.03907,7.72851 -1.75,1.82227 1.53125,2.04297 1.23829,0.29101 1.67773,-0.72851 -0.21875,-2.40625 z m -2.77148,6.85352 -2.40625,1.38672 0.4375,1.96875 3.5,0.80078 2.55273,-1.3125 -0.14648,-1.67578 z m -28.363282,13.125 -2.115234,2.04101 -0.765625,7.76563 4.265625,-2.07813 0.65625,-4.15625 z m 6.125,0.50976 -1.3125,1.89649 3.134766,1.75 2.478515,-1.16602 -1.238281,-1.82422 z m -17.572266,7.29102 -1.166015,2.69922 2.587891,2.1875 3.24414,-1.3125 0.146484,-2.91797 z"
         id="path901" />
    </g>
    <g
       id="g4929"
       style="fill:url(#linearGradient1207);fill-opacity:1;stroke:none">
      <title
         id="title1163">Vestland</title>
      <path
         style="fill:url(#linearGradient1207);fill-opacity:1;fill-rule:evenodd;stroke:none;stroke-width:1px;stroke-linecap:butt;stroke-linejoin:miter;stroke-opacity:1"
         d="m 48.052734,527.57031 0.462891,2.78516 1.496094,1.80469 1.90625,-1.13477 -0.566407,-1.85547 z m 11.082032,3.28321 -7.060547,3.57421 0.669922,1.28907 3.660156,0.61914 5.980469,0.15429 3.09375,2.26954 4.330078,-0.25782 0.568359,3.09375 4.896485,1.85547 6.669921,2.42774 2.25,1.02734 -1.082031,0.66992 -2.902344,-1.07617 -1.43164,1.19727 -1.183594,2.66211 -3.041016,-3.29883 -2.527343,1.75195 -0.773438,-4.38281 -3.349609,0.67187 -1.646485,-0.99023 0.138672,-1.00977 1.404297,-1.04297 -1.443359,-0.97851 -3.351563,-1.59961 -3.248047,-1.33985 -10.3125,5.15626 0.207032,1.95898 -1.185547,1.54687 -1.238282,-1.08398 -3.660156,-0.30859 -0.773437,3.81445 3.71289,4.02148 3.402344,-0.92773 2.835938,2.0625 -1.44336,1.80469 -3.867187,0.46484 -0.773438,2.2168 6.546875,5.82617 2.835938,-0.56836 1.238281,1.28906 -3.404297,1.39258 -3.144531,-0.92773 -3.144531,-3.60938 -2.785157,1.59766 -3.298828,-0.72071 -0.207031,3.76368 -1.443359,1.90625 9.796875,0.87695 -3.144532,3.91797 -2.732421,-2.62891 -5.56836,2.78516 2.31836,3.45312 1.753906,0.56836 1.134765,2.52539 -2.269531,2.83594 3.351563,2.7832 1.753906,1.75391 6.701172,-2.01172 6.291015,-2.42187 2.371094,2.26757 4.433594,-0.875 2.0625,3.45313 2.835937,-0.97852 4.279297,3.66016 3.248047,0.0508 2.990235,-4.48437 5.568359,3.50586 4.125,-0.41211 3.402344,5.72265 4.382812,-2.21679 3.093747,2.21679 -2.835934,2.42188 -2.47461,-0.82422 -4.382812,3.81445 -2.216797,-6.23828 -3.042969,-1.28906 -2.576172,-2.16406 -3.558594,2.6289 -7.474609,1.85547 -6.652344,-4.8457 -4.484375,-1.70117 -3.71289,2.52539 -2.681641,-2.73243 -2.371094,-0.61914 -7.578125,3.97071 -3.609375,-3.66016 -4.640625,-1.59961 -3.248046,2.01172 1.958984,2.93945 -0.490234,5.87696 -0.488282,1.33984 2.060547,2.83594 3.816406,-1.54688 1.650391,0.31055 -4.021484,4.12305 2.576172,5.98242 -1.958985,1.23633 -2.679687,-4.125 -4.53711,-3.60938 1.855469,6.08399 -0.515625,5.56836 2.783203,2.68164 5.878906,-1.95899 2.783203,-4.22851 4.433594,-0.41211 -0.101562,6.39257 -3.919922,9.17774 -3.298828,0.72266 -6.083985,-7.21876 -2.68164,1.13477 -1.546875,7.11523 -2.164063,4.02149 2.0625,2.67969 -0.927734,4.53711 2.576172,2.57812 4.228515,-2.47461 4.613282,-5.75195 1.574218,0.49414 -1.134765,3.91797 -3.197266,5.15625 4.021485,0.92773 v 5.46485 l -2.0625,1.13476 1.960937,3.29883 1.648437,0.10352 3.402344,-9.28125 4.228516,-2.47461 1.134766,-2.57813 3.402343,-1.33984 2.371094,-3.40235 5.671875,-1.34179 7.322266,-3.60743 2.267578,1.95899 9.693359,-3.81641 0.515625,3.40235 -4.332031,0.51562 -7.732422,8.45703 -0.927734,-4.22851 -2.578125,-2.0625 -14.230469,10.20898 -0.412109,3.91797 2.990234,1.85547 -7.837891,2.37305 -2.164062,5.05273 -5.56836,0.7207 -2.269531,3.81641 0.207031,4.12305 1.958985,1.65039 2.0625,-1.65039 0.103515,4.53711 -2.68164,-0.41211 -2.886719,2.37304 1.751953,2.06055 -2.578125,1.65039 -1.855469,-3.71094 H 32.6875 l -2.578125,3.71094 -1.236328,-1.0625 0.308594,-5.125 -6.177735,4.28711 -3.527344,3.52148 -1.894531,3.43165 6.882813,0.54101 3.814453,-3.11914 7.269531,0.85156 2.681641,-1.49609 6.625,2.19141 3.685547,-1.9336 3.71289,-5.07812 8.455078,-4.30469 4.046875,0.0254 1.650391,2.93945 -0.902344,5 1.44336,1.3418 7.166015,-2.93945 5.234375,0.61914 2.113282,-6.78125 4.171874,-3.75196 4.257813,-1.27343 4.666016,-5.98047 10.904299,-21.32031 -1.85547,-4.40821 1.33984,-3.40234 -3.22265,-4.38281 -0.0137,-0.0137 -0.0879,-1.14648 3.34961,-3.19531 4.07422,-0.20703 3.71094,-6.0586 3.14648,-1.39062 2.73243,0.23047 5.02734,-2.42188 3.76367,-6.31641 -3.5332,-8.6875 1.05664,-4.48632 5.72461,-2.88672 -2.0625,-6.00586 6.23828,-0.25781 0.20508,-2.29493 -2.88672,-4.48437 -5.54297,-1.88281 -1.72656,-5.85157 0.64453,-4.94921 -4.30469,-2.78516 -4.58984,0.87695 -1.88086,-4.04687 -0.082,-13.97461 -0.63477,-0.72852 -13.6289,0.32031 -9.285525,2.5971 -5.587527,-5.91741 L 81.470703,537 l -3.710937,1.19922 -15.650391,-3.99414 z m -14.949219,3.36914 -2.166016,1.23632 -0.412109,5.6211 1.855469,0.66992 7.269531,-2.93945 z m -7.734375,31.81054 -1.339844,1.75391 1.390625,1.80273 1.960938,-0.875 v -2.01172 z m -3.814453,12.88868 -3.042969,2.32031 2.269531,2.88867 2.421875,-0.0527 0.515625,-3.04101 z m -7.347657,4.56445 -0.179687,2.5 h 1.751953 l 0.257813,-1.90821 z m 1.830079,21.21484 2.113281,8.04297 h 2.0625 l -2.4375,-6.00586 z m 1.701171,9.43555 -1.701171,0.87695 3.351562,4.84571 2.0625,0.51562 -0.310547,-2.57812 z m 0.464844,7.01172 -1.804687,1.65039 2.320312,3.50586 1.185547,-2.57813 z m -4.640625,3.55664 -1.392578,2.93945 0.257813,2.47461 1.443359,1.13477 1.496094,-1.44336 z m -2.216797,8.4043 0.669922,3.50585 2.449219,1.75391 0.490234,-2.47461 -0.669921,-2.16601 z m 4.486328,11.70312 -1.908203,1.80469 1.236329,2.52734 2.373046,-1.85547 z m 3.96875,1.96094 0.41211,2.73242 1.958984,-2.0625 z m 19.644532,0.92773 -1.03125,2.67969 1.597656,1.13476 1.03125,-2.7832 z m -14.591797,3.09375 -4.433594,4.74219 1.494141,0.46484 1.753906,3.96875 2.886719,-1.33984 -0.103516,-2.52539 2.011719,-2.01172 -0.207031,-2.93945 z m -7.835938,4.58789 -1.238281,2.52539 -0.02539,5.82618 3.222656,2.83593 1.392578,-4.94922 -1.496094,-5.56836 z M 21.5,660.48633 l -1.289062,1.28906 -0.41211,2.37305 3.041016,3.34961 1.701172,0.10351 z m -1.753906,8.66211 -2.578125,3.86718 1.546875,2.26758 1.753906,-2.9375 z"
         id="path4850">
        <title
           id="title973">Vestland</title>
      </path>
    </g>
    <path
       style="fill:url(#linearGradient1183);fill-opacity:1;fill-rule:evenodd;stroke:none;stroke-width:1px;stroke-linecap:butt;stroke-linejoin:miter;stroke-opacity:1"
       d="m 80.283203,685.01562 -7.5,5.41993 0.212891,4.45312 -6.369141,3.90235 -3.34375,12.30664 2.693359,1.4707 -0.615234,0.87695 -6.019531,7.93164 -6.429688,4.375 -1.388671,2.9336 0.03711,3.80078 -2.208985,2.05273 0.375,5.12891 -4.74414,2.55859 0.125,2.04102 3.009766,0.74023 -4.375,15.72266 -3.78125,2.36914 3.203124,2.76562 2.990235,-0.875 1.021484,2.625 3.0625,0.875 -3.28125,1.96875 -4.011719,1.75 -1.384765,2.625 3.646484,5.39649 2.550781,-1.38672 1.240235,-5.97852 2.259765,0.94727 0.146485,4.66797 4.59375,3.28125 3.9375,-1.45899 0.509765,2.76954 11.519532,4.375 1.53125,-1.45704 10.0625,-0.36523 2.40625,-2.40625 -1.75,-2.55078 2.333984,-1.89649 2.769531,0.65625 2.115235,5.03125 3.683594,-1.96679 1.001953,-0.30078 4.939448,-4.29493 2.91602,1.16602 8.96875,-8.45703 1.02148,-3.71875 6.05078,-1.75 0.4375,-3.20899 3.28126,-1.3125 5.61523,-1.38476 2.04101,-2.40625 -0.80273,-4.15625 4.39649,-0.24024 -3.75586,-3.16015 0.54687,-3.38477 -4.60351,-8.19922 -6.47852,1.375 -0.17188,2.57422 -2.64648,3.02539 -5.0625,-5.25 -3.97852,0.8125 -7.3789,-6.76953 -5.78711,-0.29297 -3.88086,-8.44726 -1.140625,-14.40039 -2.953125,-3.08789 -0.609375,-4.375 2.88086,-0.97461 0.193359,-1.47852 -3.927734,-12.83789 -3.759766,-0.39648 z"
       id="path4868">
      <title
         id="title1155">Agder</title>
    </path>
    <g
       id="g4965"
       style="fill:url(#linearGradient1191);fill-opacity:1;stroke:none">
      <title
         id="title1167">Rogaland</title>
      <path
         style="fill:url(#linearGradient1191);fill-opacity:1;fill-rule:evenodd;stroke:none;stroke-width:1px;stroke-linecap:butt;stroke-linejoin:miter;stroke-opacity:1"
         d="m 64.220703,671.4043 -3.285156,0.004 -8.021485,4.09571 -3.689453,5.08593 -4.203125,2.20508 -6.701172,-2.17383 -2.511718,1.42383 -7.230469,-0.83984 -3.736328,3.11328 -7.294922,-0.53516 -0.412109,0.78321 2.1875,5.39648 h 2.333984 l 2.697266,6.70703 6.634765,0.58399 5.978516,-2.77149 0.4375,-2.40625 -3.0625,-0.36328 -1.457031,-2.33398 1.09375,-1.3125 1.894531,0.80273 0.365234,-3.0625 1.240235,0.14453 0.875,-1.96875 1.091796,3.71875 3.5,1.53125 -2.84375,1.45899 v 4.15625 l 7.949219,-4.375 1.96875,0.29101 -6.5625,5.76172 2.478516,2.04102 -1.96875,1.89453 2.115234,1.67773 -1.96875,2.55274 -6.052734,2.40625 v 2.76953 l -3.425781,0.73047 -1.3125,1.3125 0.4375,2.84375 2.988281,1.89453 -0.800781,3.79101 1.166015,0.0742 1.96875,-1.09375 4.519531,0.50977 -1.822265,1.45898 -3.425781,1.23828 -0.730469,4.08399 -3.572266,-4.22852 -0.509765,-2.11523 -2.40625,-1.60352 -4.302735,3.28125 -2.333984,-1.89648 0.65625,-1.38477 0.65625,-2.47851 -1.894531,-2.84375 -1.96875,0.29101 0.947265,3.35352 -6.78125,13.05273 1.75,3.35352 v 5.83203 l 6.490235,9.625 3.207031,1.02148 0.4375,4.66602 10.71875,8.03516 4.152344,-2.5254 4.052734,-14.39648 -2.783203,-0.70703 -0.236328,-3.35938 4.751953,-2.59961 -0.300781,-4.92578 2.189453,-2.09961 -0.01758,-3.61132 1.537109,-3.31446 6.525391,-4.41992 5.867187,-7.73633 -2.328125,-1.38867 3.671875,-13.50977 6.207031,-3.73242 -0.253906,-4.38086 7.767578,-5.64648 -1.503906,-1.48828 1.048828,-4.47656 -4.914062,-0.51758 -7.4375,3.02929 -2.283203,-2.12109 0.982421,-5.13476 z m -47.568359,16.5625 -1.494141,2.93945 -2.371094,2.7832 -0.414062,4.02149 0.310547,5.15625 2.679687,-0.51563 1.546875,-2.47461 1.650391,-4.33007 -0.308594,-3.50586 z m 4.177734,10.57031 -0.722656,2.47461 0.515625,1.54687 1.546875,-2.0625 z m 18.869141,1.03125 -3.814453,1.03125 v 2.16406 l 1.289062,0.82617 h 1.494141 l 3.300781,-2.0625 z m -7.835938,4.53711 -1.857422,0.92773 1.238282,1.75196 1.751953,-0.82422 z m -7.83789,3.91797 1.857421,2.88672 1.958985,-1.65039 -1.753906,-0.20508 z"
         id="path4874">
        <title
           id="title965">Rogaland</title>
      </path>
    </g>
    <g
       id="g4914"
       style="fill:#cccccc;fill-opacity:1;stroke:none" />
  </g>
</svg>
